HIERARCHY
ROOT Hips
{
	OFFSET 0.000000 100.481300 0.000000
	CHANNELS 6 Xposition Yposition Zposition Xrotation Yrotation Zrotation
	JOINT Spine
	{
		OFFSET -0.279200 12.230698 -2.892100
		CHANNELS 3 Xrotation Yrotation Zrotation
		JOINT Spine1
		{
			OFFSET -0.325700 14.269203 -3.374200
			CHANNELS 3 Xrotation Yrotation Zrotation
			JOINT Spine2
			{
				OFFSET -0.372300 16.307602 -0.352600
				CHANNELS 3 Xrotation Yrotation Zrotation
				JOINT Neck
				{
					OFFSET -0.418800 17.814194 8.416900
					CHANNELS 3 Xrotation Yrotation Zrotation
					JOINT Head
					{
						OFFSET 0.000000 7.031097 3.806800
						CHANNELS 3 Xrotation Yrotation Zrotation
						JOINT HeadTop_End
						{
							OFFSET 0.000000 24.646606 12.978600
							CHANNELS 3 Xrotation Yrotation Zrotation
							End Site
							{
								OFFSET 0.000000 27.854965 0.000000
							}
						}
					}
				}
				JOINT LeftShoulder
				{
					OFFSET 16.952999 14.495407 -7.737500
					CHANNELS 3 Xrotation Yrotation Zrotation
					JOINT LeftArm
					{
						OFFSET 9.308998 -2.777710 0.208600
						CHANNELS 3 Xrotation Yrotation Zrotation
						JOINT LeftForeArm
						{
							OFFSET 29.972298 0.000000 0.000000
							CHANNELS 3 Xrotation Yrotation Zrotation
							JOINT LeftHand
							{
								OFFSET 26.026505 0.000000 0.000000
								CHANNELS 3 Xrotation Yrotation Zrotation
								JOINT LeftHandThumb1
								{
									OFFSET 12.240501 -7.147949 9.207150
									CHANNELS 3 Xrotation Yrotation Zrotation
									JOINT LeftHandThumb2
									{
										OFFSET 4.138618 -2.389435 2.389433
										CHANNELS 3 Xrotation Yrotation Zrotation
										JOINT LeftHandThumb3
										{
											OFFSET 2.726913 -1.574387 1.574386
											CHANNELS 3 Xrotation Yrotation Zrotation
											JOINT LeftHandThumb4
											{
												OFFSET 3.941010 -2.275345 2.275342
												CHANNELS 3 Xrotation Yrotation Zrotation
												End Site
												{
													OFFSET -0.005798 5.087799 0.009903
												}
											}
										}
									}
								}
								JOINT LeftHandIndex1
								{
									OFFSET 24.424698 -1.985611 5.953459
									CHANNELS 3 Xrotation Yrotation Zrotation
									JOINT LeftHandIndex2
									{
										OFFSET 6.426697 0.000000 0.000000
										CHANNELS 3 Xrotation Yrotation Zrotation
										JOINT LeftHandIndex3
										{
											OFFSET 5.337898 0.000000 0.000000
											CHANNELS 3 Xrotation Yrotation Zrotation
											JOINT LeftHandIndex4
											{
												OFFSET 4.409401 0.000000 0.000000
												CHANNELS 3 Xrotation Yrotation Zrotation
												End Site
												{
													OFFSET 0.000000 4.409363 0.014373
												}
											}
										}
									}
								}
								JOINT LeftHandMiddle1
								{
									OFFSET 23.810104 0.000000 0.000000
									CHANNELS 3 Xrotation Yrotation Zrotation
									JOINT LeftHandMiddle2
									{
										OFFSET 7.176498 0.000000 0.000000
										CHANNELS 3 Xrotation Yrotation Zrotation
										JOINT LeftHandMiddle3
										{
											OFFSET 6.774902 0.000000 0.000000
											CHANNELS 3 Xrotation Yrotation Zrotation
											JOINT LeftHandMiddle4
											{
												OFFSET 5.403328 0.000000 0.000000
												CHANNELS 3 Xrotation Yrotation Zrotation
												End Site
												{
													OFFSET -0.027702 5.403244 0.017414
												}
											}
										}
									}
								}
								JOINT LeftHandRing1
								{
									OFFSET 22.908401 -0.839279 -6.020567
									CHANNELS 3 Xrotation Yrotation Zrotation
									JOINT LeftHandRing2
									{
										OFFSET 6.337502 0.000000 0.000000
										CHANNELS 3 Xrotation Yrotation Zrotation
										JOINT LeftHandRing3
										{
											OFFSET 5.779297 0.000000 0.000000
											CHANNELS 3 Xrotation Yrotation Zrotation
											JOINT LeftHandRing4
											{
												OFFSET 4.965698 0.000000 0.000000
												CHANNELS 3 Xrotation Yrotation Zrotation
												End Site
												{
													OFFSET 0.000000 4.965668 0.016186
												}
											}
										}
									}
								}
								JOINT LeftHandPinky1
								{
									OFFSET 20.037003 -1.530319 -10.950146
									CHANNELS 3 Xrotation Yrotation Zrotation
									JOINT LeftHandPinky2
									{
										OFFSET 5.254700 0.000000 0.000000
										CHANNELS 3 Xrotation Yrotation Zrotation
										JOINT LeftHandPinky3
										{
											OFFSET 4.810204 0.000000 0.000000
											CHANNELS 3 Xrotation Yrotation Zrotation
											JOINT LeftHandPinky4
											{
												OFFSET 3.647202 0.000000 0.000000
												CHANNELS 3 Xrotation Yrotation Zrotation
												End Site
												{
													OFFSET 0.000000 3.647186 0.011889
												}
											}
										}
									}
								}
							}
						}
					}
				}
				JOINT RightShoulder
				{
					OFFSET -15.141001 14.495407 -7.737500
					CHANNELS 3 Xrotation Yrotation Zrotation
					JOINT RightArm
					{
						OFFSET -9.308998 -2.777710 0.208500
						CHANNELS 3 Xrotation Yrotation Zrotation
						JOINT RightForeArm
						{
							OFFSET -29.972300 0.000000 0.000000
							CHANNELS 3 Xrotation Yrotation Zrotation
							JOINT RightHand
							{
								OFFSET -26.026505 0.000000 0.000000
								CHANNELS 3 Xrotation Yrotation Zrotation
								JOINT RightHandThumb1
								{
									OFFSET -12.240601 -7.148026 9.207092
									CHANNELS 3 Xrotation Yrotation Zrotation
									JOINT RightHandThumb2
									{
										OFFSET -4.138618 -2.389435 2.389433
										CHANNELS 3 Xrotation Yrotation Zrotation
										JOINT RightHandThumb3
										{
											OFFSET -2.726974 -1.574417 1.574421
											CHANNELS 3 Xrotation Yrotation Zrotation
											JOINT RightHandThumb4
											{
												OFFSET -3.941010 -2.275345 2.275343
												CHANNELS 3 Xrotation Yrotation Zrotation
												End Site
												{
													OFFSET 0.005814 5.087799 0.009927
												}
											}
										}
									}
								}
								JOINT RightHandIndex1
								{
									OFFSET -24.424698 -1.985657 5.953444
									CHANNELS 3 Xrotation Yrotation Zrotation
									JOINT RightHandIndex2
									{
										OFFSET -6.426697 0.000000 0.000000
										CHANNELS 3 Xrotation Yrotation Zrotation
										JOINT RightHandIndex3
										{
											OFFSET -5.337898 0.000000 0.000000
											CHANNELS 3 Xrotation Yrotation Zrotation
											JOINT RightHandIndex4
											{
												OFFSET -4.409401 0.000000 0.000000
												CHANNELS 3 Xrotation Yrotation Zrotation
												End Site
												{
													OFFSET 0.000000 4.409363 0.014408
												}
											}
										}
									}
								}
								JOINT RightHandMiddle1
								{
									OFFSET -23.810097 0.000000 0.000000
									CHANNELS 3 Xrotation Yrotation Zrotation
									JOINT RightHandMiddle2
									{
										OFFSET -7.176498 0.000000 0.000000
										CHANNELS 3 Xrotation Yrotation Zrotation
										JOINT RightHandMiddle3
										{
											OFFSET -6.774902 0.000000 0.000000
											CHANNELS 3 Xrotation Yrotation Zrotation
											JOINT RightHandMiddle4
											{
												OFFSET -5.403328 0.000000 0.000000
												CHANNELS 3 Xrotation Yrotation Zrotation
												End Site
												{
													OFFSET 0.027702 5.403244 0.017457
												}
											}
										}
									}
								}
								JOINT RightHandRing1
								{
									OFFSET -22.908302 -0.839325 -6.020576
									CHANNELS 3 Xrotation Yrotation Zrotation
									JOINT RightHandRing2
									{
										OFFSET -6.337502 0.000000 0.000000
										CHANNELS 3 Xrotation Yrotation Zrotation
										JOINT RightHandRing3
										{
											OFFSET -5.779297 0.000000 0.000000
											CHANNELS 3 Xrotation Yrotation Zrotation
											JOINT RightHandRing4
											{
												OFFSET -4.965698 0.000000 0.000000
												CHANNELS 3 Xrotation Yrotation Zrotation
												End Site
												{
													OFFSET 0.000000 4.965668 0.016226
												}
											}
										}
									}
								}
								JOINT RightHandPinky1
								{
									OFFSET -20.037003 -1.530334 -10.950259
									CHANNELS 3 Xrotation Yrotation Zrotation
									JOINT RightHandPinky2
									{
										OFFSET -5.254700 0.000000 0.000000
										CHANNELS 3 Xrotation Yrotation Zrotation
										JOINT RightHandPinky3
										{
											OFFSET -4.810204 0.000000 0.000000
											CHANNELS 3 Xrotation Yrotation Zrotation
											JOINT RightHandPinky4
											{
												OFFSET -3.647202 0.000000 0.000000
												CHANNELS 3 Xrotation Yrotation Zrotation
												End Site
												{
													OFFSET 0.000000 3.647186 0.011917
												}
											}
										}
									}
								}
							}
						}
					}
				}
			}
		}
	}
	JOINT LeftUpLeg
	{
		OFFSET 15.427100 -6.655098 0.678600
		CHANNELS 3 Xrotation Yrotation Zrotation
		JOINT LeftLeg
		{
			OFFSET 4.081073 -39.591068 13.024000
			CHANNELS 3 Xrotation Yrotation Zrotation
			JOINT LeftFoot
			{
				OFFSET -4.081074 -37.707932 -15.979700
				CHANNELS 3 Xrotation Yrotation Zrotation
				JOINT LeftToeBase
				{
					OFFSET 5.346399 -15.068900 20.645000
					CHANNELS 3 Xrotation Yrotation Zrotation
					JOINT LeftToe_End
					{
						OFFSET 2.754700 0.931300 11.300900
						CHANNELS 3 Xrotation Yrotation Zrotation
						End Site
						{
							OFFSET 0.000000 11.669021 0.000000
						}
					}
				}
			}
		}
	}
	JOINT RightUpLeg
	{
		OFFSET -15.569500 -6.655098 0.678600
		CHANNELS 3 Xrotation Yrotation Zrotation
		JOINT RightLeg
		{
			OFFSET -4.081825 -39.591045 13.023800
			CHANNELS 3 Xrotation Yrotation Zrotation
			JOINT RightFoot
			{
				OFFSET 4.081824 -37.707954 -15.979600
				CHANNELS 3 Xrotation Yrotation Zrotation
				JOINT RightToeBase
				{
					OFFSET -5.346400 -15.068900 20.645000
					CHANNELS 3 Xrotation Yrotation Zrotation
					JOINT RightToe_End
					{
						OFFSET -2.754700 0.931300 11.300900
						CHANNELS 3 Xrotation Yrotation Zrotation
						End Site
						{
							OFFSET 0.000000 11.669021 0.000000
						}
					}
				}
			}
		}
	}
}
MOTION
Frames: 6
Frame Time: 0.033333
-1.981647 95.523376 -0.254174 -33.635905 -68.975328 -33.892140 3.339411 2.992409 -0.201386 6.620933 5.317944 2.521329 6.678482 5.244854 2.524095 10.162556 6.215017 -8.401676 -4.099582 36.180335 -2.032900 -0.000001 -0.000001 -0.000000 1.500898 -2.812782 -10.329588 -19.614220 13.687481 -27.929251 0.000164 -95.809270 0.000165 -28.238830 8.958596 -3.842218 13.440423 14.461245 -16.748951 44.409576 44.305395 -5.927896 13.359792 22.034078 1.096470 -0.000004 -0.000001 -0.000002 7.358872 6.864674 -93.990185 7.358894 6.864672 -93.990213 2.174459 5.025349 -46.774133 -0.000001 0.000000 -0.000003 7.356944 6.864817 -93.973984 7.360831 6.864550 -94.006414 2.174459 5.025365 -46.774119 -0.000002 0.000003 0.000001 7.358872 6.864674 -93.990185 7.358895 6.864675 -93.990213 2.174460 5.025345 -46.774133 -0.000002 0.000001 -0.000001 11.431431 6.583611 -93.956820 7.357786 2.778419 -93.976921 2.174466 5.025352 -46.774119 0.000000 0.000000 -0.000002 2.464931 2.058088 9.545217 -57.633136 45.559786 70.260660 -0.000030 109.877827 0.000042 -22.792831 4.470369 -10.640052 25.187764 -0.167279 3.133624 58.553532 -29.770315 38.592147 20.312539 -18.206962 13.427669 0.000000 -0.000001 0.000000 7.809879 -6.894857 97.140849 6.094135 -6.895787 82.921987 1.732046 -4.596484 41.277224 -0.000001 0.000002 -0.000005 7.809879 -6.894856 97.140849 6.094135 -6.895789 82.921994 1.732038 -4.596485 41.277224 -0.000002 0.000000 0.000002 7.809877 -6.894864 97.140849 6.094144 -6.895800 82.921987 1.732045 -4.596486 41.277220 0.000001 0.000001 0.000001 7.809879 -6.894857 97.140849 6.094142 -6.895797 82.921994 1.732045 -4.596477 41.277220 0.000001 0.000001 -0.000001 -11.628985 22.754925 23.075126 30.941334 -9.025772 -0.569305 10.027962 -8.620704 -2.946578 -19.407626 0.926639 -2.799399 -0.000000 0.000002 -0.000000 -0.133205 -11.759112 -13.413840 24.739900 9.523272 0.208222 6.386002 1.402300 10.506267 -21.367338 -0.004387 0.041945 0.000000 0.000001 0.000000 
-1.618652 95.723740 1.202551 -38.190637 -69.244629 -37.059367 3.613250 3.151571 -0.482756 7.066610 5.391400 2.726964 7.115505 5.324303 2.732446 10.488064 6.339814 -9.220632 -3.020423 36.416106 -2.551851 -0.000000 -0.000001 -0.000000 1.594632 -3.128553 -10.854405 -19.415871 13.185400 -28.526294 -0.001042 -93.405747 -0.001056 -27.880267 8.176056 -3.666490 13.440421 14.461245 -16.748951 44.409579 44.305392 -5.927893 13.359791 22.034076 1.096467 0.000000 0.000001 0.000002 7.358871 6.864678 -93.990185 7.358889 6.864668 -93.990213 2.174462 5.025350 -46.774139 0.000000 0.000001 0.000000 7.356941 6.864820 -93.973984 7.360833 6.864546 -94.006414 2.174464 5.025362 -46.774122 -0.000002 0.000001 -0.000000 7.358872 6.864676 -93.990185 7.358895 6.864670 -93.990213 2.174453 5.025348 -46.774136 0.000000 -0.000000 -0.000000 11.431432 6.583614 -93.956813 7.357783 2.778418 -93.976928 2.174467 5.025353 -46.774119 -0.000003 -0.000002 -0.000001 2.342585 1.705877 9.536805 -57.920059 46.806176 69.956635 -0.000014 109.533141 -0.000000 -22.636481 4.428559 -10.583758 25.187764 -0.167278 3.133627 58.553532 -29.770325 38.592150 20.312540 -18.206959 13.427666 0.000000 -0.000003 -0.000001 7.809881 -6.894861 97.140849 6.094136 -6.895786 82.921987 1.732045 -4.596481 41.277220 0.000002 0.000000 -0.000003 7.809881 -6.894860 97.140849 6.094140 -6.895787 82.921994 1.732030 -4.596486 41.277220 -0.000001 0.000000 0.000005 7.809879 -6.894866 97.140849 6.094147 -6.895796 82.921987 1.732048 -4.596483 41.277220 -0.000001 0.000000 0.000001 7.809881 -6.894860 97.140849 6.094146 -6.895794 82.921994 1.732040 -4.596476 41.277224 0.000001 -0.000002 -0.000005 -7.195124 20.027126 20.484475 28.042081 -9.220886 -0.486291 7.696913 -9.075312 -2.353899 -13.705851 0.697561 -4.850590 -0.000001 -0.000001 0.000000 0.492646 -13.102815 -16.044531 26.126184 4.184703 0.240562 6.268447 -1.542620 10.667604 -16.500596 -0.399716 2.949052 -0.000000 -0.000000 -0.000000 
-1.128403 94.908401 2.444775 -42.191970 -69.831909 -39.862118 3.758010 3.490197 -0.874623 7.253178 5.767616 2.815164 7.298350 5.706778 2.822446 10.548960 6.293512 -9.184061 -2.296578 36.443974 -3.409913 -0.000000 0.000001 -0.000000 1.677846 -3.566365 -11.072097 -19.071819 12.483952 -29.542542 0.007627 -91.927721 0.007704 -27.053843 7.596762 -3.203003 13.440426 14.461247 -16.748947 44.409572 44.305392 -5.927902 13.359795 22.034079 1.096472 0.000000 0.000000 0.000000 7.358872 6.864679 -93.990179 7.358893 6.864672 -93.990213 2.174458 5.025350 -46.774133 -0.000001 0.000000 -0.000000 7.356943 6.864820 -93.973977 7.360837 6.864551 -94.006407 2.174468 5.025365 -46.774129 0.000000 0.000000 0.000001 7.358874 6.864679 -93.990179 7.358896 6.864678 -93.990213 2.174457 5.025344 -46.774139 -0.000002 0.000001 0.000001 11.431431 6.583615 -93.956813 7.357783 2.778418 -93.976928 2.174463 5.025349 -46.774122 -0.000001 -0.000001 -0.000003 2.172032 1.301715 9.570002 -57.953172 46.908411 69.779023 0.000073 109.224308 -0.000090 -22.754290 4.451830 -10.606814 25.187760 -0.167278 3.133625 58.553532 -29.770319 38.592147 20.312540 -18.206959 13.427669 -0.000000 -0.000002 -0.000001 7.809879 -6.894858 97.140849 6.094136 -6.895791 82.921994 1.732052 -4.596483 41.277227 0.000001 0.000000 -0.000000 7.809879 -6.894857 97.140849 6.094143 -6.895793 82.921994 1.732035 -4.596482 41.277220 0.000002 0.000003 -0.000001 7.809876 -6.894865 97.140849 6.094145 -6.895797 82.921987 1.732046 -4.596483 41.277220 0.000001 0.000001 -0.000001 7.809879 -6.894858 97.140849 6.094148 -6.895797 82.921994 1.732046 -4.596477 41.277224 0.000002 0.000002 0.000000 -4.412015 17.851292 19.177669 26.766478 -9.371075 -0.572658 4.192203 -11.636128 -2.614143 -13.964119 0.053826 -2.593969 -0.000000 0.000001 -0.000000 0.773471 -13.583465 -18.582407 29.166380 -4.634612 0.173500 2.660335 -1.347909 10.576016 -8.687108 -0.636786 6.299837 0.000000 -0.000000 0.000000 
-0.506199 93.184814 3.455950 -45.236862 -70.633937 -42.093240 3.854200 3.785546 -1.084516 7.395435 6.204517 2.725490 7.436794 6.151778 2.732459 9.917789 6.286727 -8.731986 -2.615449 36.727980 -4.155861 0.000000 0.000000 -0.000000 1.667701 -3.554168 -10.974529 -19.802172 11.863735 -30.132271 0.000658 -91.374708 0.000801 -26.470453 7.634597 -3.427237 13.440426 14.461245 -16.748951 44.409576 44.305392 -5.927887 13.359795 22.034078 1.096469 -0.000000 0.000001 0.000000 7.358874 6.864678 -93.990179 7.358894 6.864672 -93.990213 2.174455 5.025352 -46.774133 0.000002 0.000000 -0.000002 7.356944 6.864820 -93.973977 7.360833 6.864551 -94.006414 2.174462 5.025361 -46.774122 0.000000 -0.000001 -0.000002 7.358876 6.864677 -93.990179 7.358896 6.864675 -93.990213 2.174454 5.025346 -46.774136 0.000001 -0.000001 -0.000000 11.431435 6.583614 -93.956813 7.357784 2.778422 -93.976921 2.174466 5.025351 -46.774119 0.000001 -0.000001 -0.000001 2.349431 1.954837 9.701304 -57.927374 45.607048 68.854201 0.000082 109.063211 -0.000081 -23.230209 4.526000 -10.652559 25.187764 -0.167277 3.133623 58.553532 -29.770319 38.592147 20.312539 -18.206962 13.427668 -0.000000 0.000002 -0.000001 7.809885 -6.894860 97.140849 6.094134 -6.895785 82.921994 1.732048 -4.596486 41.277220 0.000001 -0.000001 0.000000 7.809888 -6.894859 97.140849 6.094139 -6.895791 82.921994 1.732029 -4.596483 41.277220 -0.000004 -0.000002 0.000000 7.809883 -6.894865 97.140849 6.094145 -6.895795 82.921987 1.732045 -4.596480 41.277220 0.000001 -0.000000 0.000001 7.809888 -6.894860 97.140849 6.094145 -6.895797 82.921994 1.732043 -4.596478 41.277220 0.000001 0.000002 -0.000001 -2.680988 17.589709 18.762248 26.631775 -9.842565 -0.864630 -1.921647 -15.052642 -3.615638 -16.913386 -0.000014 0.000000 -0.000001 0.000001 0.000000 -0.036924 -13.433774 -19.652368 32.961960 -8.485334 0.017166 -2.006028 -3.850375 10.722035 -3.583840 -0.420085 7.322368 -0.000000 0.000001 -0.000000 
0.213753 90.546425 4.248025 -46.963302 -71.499008 -43.367303 3.944058 3.967146 -1.412084 7.568765 6.426086 2.424094 7.613105 6.371066 2.429961 8.951512 6.369285 -8.250494 -3.304389 37.326622 -4.782142 0.000000 0.000001 -0.000000 1.609916 -3.284404 -10.780587 -20.776107 11.722690 -30.473029 -0.013143 -91.658325 -0.013143 -25.487607 7.975858 -3.956709 13.440422 14.461244 -16.748951 44.409576 44.305395 -5.927896 13.359792 22.034079 1.096473 0.000002 0.000001 0.000001 7.358872 6.864674 -93.990185 7.358892 6.864674 -93.990213 2.174459 5.025354 -46.774136 -0.000002 0.000003 0.000000 7.356942 6.864820 -93.973984 7.360833 6.864552 -94.006414 2.174466 5.025363 -46.774122 0.000002 -0.000000 -0.000001 7.358872 6.864674 -93.990179 7.358897 6.864676 -93.990213 2.174457 5.025348 -46.774136 0.000002 -0.000001 -0.000000 11.431433 6.583613 -93.956813 7.357783 2.778422 -93.976921 2.174461 5.025355 -46.774119 -0.000001 -0.000001 0.000000 2.304858 2.178227 9.949669 -58.829717 44.240013 68.922401 -0.000012 108.947958 0.000014 -23.859982 4.557672 -10.562604 25.187762 -0.167277 3.133623 58.553538 -29.770315 38.592147 20.312540 -18.206962 13.427666 0.000000 0.000002 0.000000 7.809884 -6.894859 97.140849 6.094133 -6.895786 82.921994 1.732047 -4.596483 41.277224 -0.000001 -0.000002 0.000000 7.809884 -6.894858 97.140849 6.094139 -6.895788 82.921994 1.732032 -4.596486 41.277224 0.000001 -0.000001 0.000004 7.809879 -6.894864 97.140849 6.094145 -6.895795 82.921987 1.732048 -4.596482 41.277220 0.000001 0.000000 -0.000002 7.809884 -6.894859 97.140849 6.094145 -6.895795 82.921994 1.732047 -4.596478 41.277227 0.000001 -0.000002 0.000001 -2.361972 18.564096 19.036856 28.026404 -10.325031 -1.192006 -8.924317 -16.862373 -6.537137 -13.660226 0.000010 0.000000 0.000001 0.000001 0.000000 -2.227387 -12.680752 -20.313751 37.544546 -8.230919 0.011112 -6.555536 -7.285675 11.789153 -2.630517 -0.276534 5.935991 -0.000001 -0.000001 -0.000000 
0.881117 87.771667 4.728556 -47.303039 -72.242829 -43.458677 3.936546 4.009887 -1.750363 7.595642 6.440999 2.002643 7.645630 6.380630 2.005401 8.051144 6.421218 -7.662737 -4.015826 37.888951 -5.331799 0.000001 0.000001 -0.000000 1.549042 -3.052150 -10.478211 -21.553297 11.841482 -30.600118 -0.000361 -92.641435 -0.000416 -24.295232 8.693660 -4.089583 13.440423 14.461247 -16.748952 44.409579 44.305392 -5.927893 13.359793 22.034078 1.096472 0.000002 -0.000001 0.000000 7.358876 6.864678 -93.990185 7.358894 6.864670 -93.990220 2.174454 5.025353 -46.774133 -0.000000 -0.000001 -0.000002 7.356944 6.864822 -93.973977 7.360833 6.864547 -94.006414 2.174465 5.025361 -46.774122 -0.000001 0.000001 -0.000001 7.358877 6.864678 -93.990185 7.358899 6.864677 -93.990213 2.174459 5.025348 -46.774133 0.000003 -0.000001 -0.000001 11.431433 6.583614 -93.956813 7.357785 2.778419 -93.976921 2.174460 5.025356 -46.774119 -0.000001 -0.000001 0.000000 2.531174 2.464449 9.724011 -59.905383 42.643880 69.357320 0.000105 109.050739 -0.000078 -24.356723 4.581084 -10.493097 25.187764 -0.167278 3.133623 58.553532 -29.770322 38.592147 20.312542 -18.206959 13.427668 0.000001 -0.000002 -0.000000 7.809881 -6.894856 97.140856 6.094137 -6.895788 82.921994 1.732042 -4.596484 41.277224 -0.000000 0.000000 -0.000000 7.809881 -6.894855 97.140849 6.094141 -6.895790 82.921994 1.732037 -4.596484 41.277220 -0.000000 0.000003 0.000000 7.809875 -6.894864 97.140849 6.094144 -6.895795 82.921987 1.732041 -4.596481 41.277220 0.000002 0.000000 -0.000001 7.809881 -6.894856 97.140849 6.094146 -6.895797 82.921994 1.732037 -4.596479 41.277224 0.000001 0.000002 0.000000 -3.418140 19.233603 19.695233 30.796616 -10.349822 -1.346375 -14.868016 -17.492596 -9.020761 -7.851313 0.000004 -0.000004 -0.000000 0.000001 -0.000000 -4.979371 -11.469973 -21.376750 42.399338 -7.773490 0.144654 -9.643010 -8.849521 14.316859 -2.443720 -0.213912 5.238804 0.000001 -0.000001 -0.000000 
